<svg width="20.000000" height="22.000000" viewBox="0 0 20 22" fill="none" xmlns="http://www.w3.org/2000/svg" xmlns:xlink="http://www.w3.org/1999/xlink">
	<desc>
			Created with Pixso.
	</desc>
	<defs/>
	<path id="icon" d="M14.59 5C14.57 4.91 14.55 4.83 14.53 4.75C14.26 3.7 13.84 2.55 13.15 1.64C12.44 0.71 11.41 0 10 0C8.58 0 7.55 0.71 6.84 1.64C6.15 2.55 5.73 3.7 5.46 4.75C5.44 4.83 5.42 4.91 5.4 5L3.78 5C2.18 5 0.85 6.22 0.75 7.8L0 18.8C-0.12 20.53 1.28 22 3.04 22L16.95 22C18.71 22 20.11 20.53 19.99 18.8L19.24 7.8C19.14 6.22 17.81 5 16.21 5L14.59 5ZM5.94 10C6.52 10 6.95 9.56 6.95 8.99C6.95 8.97 6.95 8.95 6.95 8.92C6.95 8.87 6.96 8.79 6.96 8.69C6.97 8.48 6.98 8.18 7.01 7.83C7.03 7.57 7.06 7.29 7.1 7L12.89 7C12.93 7.29 12.96 7.57 12.98 7.83C13.01 8.18 13.02 8.48 13.03 8.69C13.03 8.79 13.04 8.87 13.04 8.92C13.04 8.95 13.04 8.97 13.04 9C13.04 9 13.04 10 14.05 10C15.06 10 15.06 8.99 15.06 8.99C15.06 8.96 15.06 8.92 15.06 8.89C15.06 8.82 15.06 8.73 15.06 8.62C15.05 8.38 15.03 8.06 15 7.66C14.98 7.46 14.96 7.23 14.93 7L16.21 7C16.74 7 17.19 7.4 17.22 7.93L17.96 18.93C18 19.51 17.54 20 16.95 20L3.04 20C2.45 20 1.99 19.51 2.03 18.93L2.77 7.93C2.8 7.4 3.25 7 3.78 7L5.06 7C5.03 7.23 5.01 7.46 4.99 7.66C4.96 8.06 4.94 8.38 4.93 8.62C4.93 8.73 4.93 8.82 4.93 8.89C4.93 8.92 4.93 8.96 4.93 8.99C4.92 9.56 5.36 10 5.94 10ZM7.49 5L12.5 5C12.26 4.15 11.94 3.39 11.53 2.85C11.1 2.28 10.61 2 10 2C9.38 2 8.89 2.28 8.46 2.85C8.05 3.39 7.73 4.15 7.49 5Z" fill="#151618" fill-opacity="1.000000" fill-rule="evenodd"/>
</svg>
