<svg width="20.000000" height="20.000000" viewBox="0 0 20 20" fill="none" xmlns="http://www.w3.org/2000/svg" xmlns:xlink="http://www.w3.org/1999/xlink">
	<desc>
			Created with Pixso.
	</desc>
	<defs/>
	<path d="M0.55 0.55C-0.19 1.29 -0.19 2.48 0.55 3.22L7.32 10L0.55 16.77C-0.19 17.51 -0.19 18.7 0.55 19.44C1.29 20.18 2.48 20.18 3.22 19.44L10 12.67L16.77 19.44C17.51 20.18 18.7 20.18 19.44 19.44C20.18 18.7 20.18 17.51 19.44 16.77L12.67 10L19.44 3.22C20.18 2.48 20.18 1.29 19.44 0.55C18.7 -0.19 17.51 -0.19 16.77 0.55L10 7.32L3.22 0.55C2.48 -0.19 1.29 -0.19 0.55 0.55Z" fill="#754E29" fill-opacity="1.000000" fill-rule="nonzero"/>
</svg>
