<svg width="74.000000" height="105.000000" viewBox="0 0 74 105" fill="none" xmlns="http://www.w3.org/2000/svg" xmlns:xlink="http://www.w3.org/1999/xlink">
	<desc>
			Created with Pixso.
	</desc>
	<defs/>
	<path d="M46.07 1.28C45.38 2.02 43.75 3.56 42.44 4.75C38.09 8.68 37.21 10.08 37.09 13.29C37 15.9 37.63 17.88 39.26 20.13C39.7 20.73 40.06 21.19 40.06 21.13C40.06 21.09 39.79 20.53 39.46 19.9C38.2 17.49 37.82 14.57 38.51 12.49C39.16 10.54 40.1 9.37 43.3 6.54C43.97 5.96 44.8 5.14 45.14 4.75L45.79 4.04L45.7 7.04C45.65 9.04 45.55 10.41 45.38 11.13C44.83 13.55 43.75 15.47 41.78 17.58C40.36 19.11 39.95 19.98 40.34 20.7C40.4 20.83 40.51 21.37 40.57 21.89L40.66 22.83L39.8 23.38C36.91 25.21 34.87 27.86 34.04 30.87C33.82 31.67 33.73 32.45 33.73 33.7C33.71 36.35 34.22 38.55 35.51 41.33L36.19 42.79L35.95 43.94C35.71 45.1 35.63 48.55 35.84 49.46C35.92 49.81 36.01 49.89 36.38 49.89L36.83 49.89L36.94 48.04C37.33 41.45 39.61 37.62 44.96 34.57C49.09 32.22 50.31 30.9 53.05 25.8C55.21 21.75 55.9 20.67 57.57 18.62L58.51 17.46L57.18 18.01C55.02 18.89 51.91 19.78 48.16 20.58C44.56 21.34 42.92 21.79 41.68 22.39C41.29 22.58 40.93 22.73 40.88 22.73C40.84 22.73 40.82 22.16 40.87 21.44C40.94 19.91 40.96 19.88 43.28 17.56C44.54 16.32 45.07 15.66 45.5 14.84C46.46 13.02 46.54 12.49 46.43 8.98C46.33 5.68 46.51 3.53 47.11 1.14C47.26 0.53 47.38 0.01 47.36 0C47.35 -0.02 46.76 0.57 46.07 1.28ZM52.99 23.75C49.98 29.05 47.87 31.3 43.06 34.41C42.11 35.03 41 35.8 40.6 36.12C39.11 37.29 37.42 39.61 36.77 41.35C36.62 41.76 36.46 42.05 36.41 41.98C36.17 41.62 35.53 38.7 35.38 37.33C34.88 32.82 36.64 28.87 40.33 26.22C42.44 24.68 44.36 23.98 48.23 23.31C49.89 23.02 52.51 22.29 53.64 21.82C53.89 21.72 54.1 21.65 54.13 21.66C54.15 21.67 53.64 22.62 52.99 23.75Z" fill="#151618" fill-opacity="1.000000" fill-rule="nonzero"/>
	<path d="M19.68 4.86C20.57 8.09 20.84 12.32 20.41 16.28C19.87 21.22 20.32 22.71 23.51 26.77C24.37 27.86 25.34 29.28 25.69 29.92C26.66 31.8 27.18 34.46 27.19 37.68L27.19 39.01L26.83 38.87C26 38.57 24.49 38.44 20.71 38.37C18.5 38.32 16.22 38.22 15.63 38.17C15.07 38.09 14.58 38.07 14.56 38.08C14.53 38.09 14.83 38.32 15.23 38.6C16.92 39.76 18.62 41.26 20.59 43.35C21.75 44.56 23.14 45.91 23.69 46.33C26.04 48.12 28.74 49.17 32.01 49.54C33.35 49.7 32.81 49.21 30.55 48.27C26.94 46.75 25.13 45.51 22.36 42.69C21.32 41.62 20.05 40.49 19.56 40.16L18.66 39.59L20.42 39.59C25.04 39.59 27.65 40.45 29.88 42.7C30.98 43.8 31.77 45.18 32.17 46.66C32.29 47.13 32.43 47.55 32.47 47.59C32.62 47.72 32.58 45.9 32.41 44.89C32.07 42.81 30.34 40.52 28.36 39.51L27.49 39.08L27.49 36.72C27.49 32.01 27.06 30.39 24.79 26.72C21.79 21.84 21.3 19.91 21.39 13.16C21.42 11.06 21.47 9.34 21.48 9.35C21.48 9.37 21.79 9.77 22.15 10.24C22.52 10.72 23.85 12.14 25.12 13.4C28.19 16.46 29.37 18.22 30.1 20.88C30.92 23.79 30.25 27.86 28.31 31.8C27.95 32.53 27.68 33.13 27.7 33.13C27.73 33.13 27.98 32.79 28.28 32.35C30.62 28.97 31.8 25.15 31.62 21.58C31.52 19.63 31.11 18.11 30.26 16.41C29.4 14.66 28.4 13.43 25.51 10.55C23.26 8.29 21.7 6.63 20.08 4.79L19.45 4.07L19.68 4.86Z" fill="#151618" fill-opacity="1.000000" fill-rule="nonzero"/>
	<path d="M46.57 40.03C43.14 40.73 40.81 43.64 40.8 47.21C40.8 47.92 40.77 47.98 40.33 48.12C39.55 48.37 40.12 48.5 42.54 48.6C46 48.75 48.12 48.36 49.92 47.25C50.41 46.95 51.66 45.99 52.7 45.12C54.8 43.38 55.88 42.64 57.66 41.74L58.84 41.14L57.4 41.04C56.62 41 55.22 40.82 54.29 40.66C53.36 40.5 51.89 40.24 51.01 40.1C49.18 39.79 47.86 39.76 46.57 40.03ZM51.53 41.81C52.26 41.98 53.4 42.17 54.03 42.21L55.21 42.31L53.57 43.57C51.07 45.48 49.42 46.35 47.3 46.86C46.22 47.13 41.38 47.83 41.28 47.73C41.14 47.6 41.58 46.28 42.11 45.24C43.02 43.43 44.75 42.13 46.93 41.6C48.04 41.33 49.78 41.41 51.53 41.81Z" fill="#151618" fill-opacity="1.000000" fill-rule="nonzero"/>
	<path d="M13.05 55.64C12.87 63.38 13.29 66.01 15.32 69.91C16.39 71.95 18.12 74.35 19.35 75.47C19.65 75.74 19.89 76 19.89 76.04C19.89 76.1 16.15 76.12 11.59 76.09C7.02 76.06 3.12 76.09 2.93 76.13C2.75 76.17 2.51 76.38 2.42 76.56C2.28 76.87 2.3 76.97 2.52 77.21C2.79 77.5 2.96 77.5 36.47 77.5C59.41 77.5 70.24 77.46 70.45 77.36C70.84 77.15 70.84 76.4 70.45 76.2C70.25 76.12 67.15 76.06 61.41 76.06L52.67 76.06L53.59 75.01C56.2 72.06 57.9 68.81 59.02 64.68C59.33 63.54 59.36 63.05 59.41 57.29L59.48 51.14L36.32 51.14L13.16 51.14L13.05 55.64Z" fill="#151618" fill-opacity="1.000000" fill-rule="nonzero"/>
	<path d="M6.81 79.45C11.89 81.74 19.73 83.61 27.03 84.27C28.33 84.4 28.91 84.5 28.69 84.56C28.37 84.64 28.36 84.65 28.61 84.67C28.78 84.68 29.8 84.75 30.87 84.84C36.37 85.22 48.16 84.99 47.83 84.5C47.78 84.43 47.8 84.4 47.89 84.44C47.96 84.48 48.23 84.47 48.47 84.4C48.9 84.29 48.9 84.29 48.31 84.26C47.95 84.24 48.71 84.07 50.19 83.83C54.77 83.1 58.55 82.21 61.65 81.13C63.42 80.51 66.86 79.1 67.1 78.87C67.18 78.8 55.44 78.74 36.28 78.76L5.31 78.77L6.81 79.45Z" fill="#151618" fill-opacity="1.000000" fill-rule="nonzero"/>
	<path d="M65.17 100.61Q65.24 100.6 65.27 100.6Q65.33 100.6 65.42 100.61L65.61 100.61Q65.7 100.61 65.77 100.62L65.87 100.62Q66.04 100.62 66.18 100.66Q66.32 100.7 66.48 100.7L66.52 100.7Q66.54 100.7 66.61 100.68Q66.68 100.66 66.76 100.64Q66.84 100.63 66.91 100.63Q66.99 100.62 67.01 100.62Q67.31 100.58 67.58 100.58Q67.86 100.58 68.16 100.48L68.26 100.48Q68.26 100.48 68.31 100.52L68.37 100.55Q68.37 100.55 68.42 100.56Q68.47 100.57 68.53 100.58L68.66 100.6Q68.72 100.61 68.74 100.62L68.79 100.62Q68.89 100.62 68.97 100.57Q69.01 100.55 69.04 100.51Q69.06 100.49 69.07 100.47Q69.15 100.38 69.19 100.26Q69.21 100.2 69.23 100.14Q69.25 100.05 69.26 99.96Q69.28 99.79 69.29 99.68L69.29 98.66Q69.29 98.62 69.31 98.55Q69.35 98.48 69.35 98.45L69.35 98.38Q69.35 98.26 69.31 98.17Q69.29 98.08 69.29 97.95Q69.29 97.86 69.31 97.76Q69.32 97.73 69.33 97.7Q69.35 97.63 69.35 97.56L69.35 97.51L69.24 97.41Q69.17 97.34 69.14 97.32Q69.11 97.33 69.09 97.35Q69.07 97.36 69.04 97.38Q69.02 97.39 69 97.41Q68.99 97.43 68.9 97.5Q68.82 97.57 68.8 97.6Q68.8 97.62 68.77 97.68Q68.75 97.73 68.72 97.8Q68.69 97.86 68.66 97.92Q68.63 97.96 68.62 97.97Q68.61 97.99 68.58 98.03Q68.54 98.08 68.5 98.12L68.41 98.21Q68.37 98.25 68.37 98.26Q68.37 98.28 68.34 98.36Q68.31 98.44 68.3 98.45Q68.3 98.47 68.24 98.55Q68.18 98.63 68.16 98.66Q68.15 98.67 68.11 98.77Q68.07 98.87 68.01 98.98Q67.97 99.09 67.92 99.18Q67.87 99.28 67.85 99.31Q67.8 99.39 67.74 99.49Q67.68 99.59 67.6 99.68Q67.56 99.73 67.52 99.77Q67.48 99.81 67.43 99.85Q67.35 99.92 67.25 99.95L65.58 99.95Q65.57 99.95 65.52 99.97Q65.46 99.97 65.39 99.99Q65.33 100 65.28 100.02Q65.23 100.03 65.22 100.03L64.58 100.03Q64.47 100.03 64.36 100.01Q64.25 99.99 64.15 99.95L63.78 99.95Q63.52 99.94 63.22 99.93Q62.93 99.92 62.67 99.91Q62.41 99.9 62.31 99.9Q62.26 99.9 62.16 99.89Q62.07 99.87 61.98 99.87Q61.88 99.86 61.8 99.85Q61.73 99.84 61.72 99.82Q61.7 99.82 61.66 99.78L61.57 99.71Q61.54 99.67 61.5 99.63Q61.47 99.59 61.46 99.57Q61.46 99.53 61.45 99.41L61.45 99.26Q61.45 98.9 61.48 98.58Q61.52 98.25 61.52 97.91Q61.52 97.86 61.51 97.83Q61.5 97.79 61.46 97.72Q61.46 97.66 61.44 97.5Q61.43 97.34 61.42 97.16Q61.41 96.98 61.4 96.82Q61.4 96.66 61.4 96.59L61.4 96.48Q61.4 96.38 61.43 96.19Q61.47 95.98 61.49 95.77Q61.53 95.56 61.55 95.39Q61.59 95.2 61.6 95.14Q61.62 95 61.7 94.91Q61.76 94.84 61.84 94.8Q61.99 94.72 62.15 94.69Q62.21 94.68 62.28 94.68L62.37 94.68Q62.39 94.68 62.45 94.72Q62.51 94.75 62.52 94.78Q62.56 94.78 62.64 94.79L62.84 94.81Q62.94 94.81 63.04 94.82Q63.14 94.82 63.18 94.82Q63.23 94.84 63.39 94.84L64.07 94.84Q64.22 94.84 64.29 94.82Q64.41 94.85 64.48 94.91Q64.53 94.96 64.57 95.02Q64.66 95.18 64.68 95.41Q64.72 95.64 64.72 95.91Q64.72 96.19 64.74 96.45Q64.75 96.7 64.81 96.92Q64.86 97.13 65 97.25Q65.01 97.26 65.02 97.27Q65.04 97.31 65.12 97.36Q65.2 97.41 65.22 97.41Q65.24 97.41 65.31 97.36Q65.39 97.31 65.39 97.27Q65.49 97.12 65.52 96.99Q65.55 96.87 65.55 96.72Q65.55 96.69 65.54 96.63L65.54 96.5Q65.54 96.43 65.54 96.37L65.54 96.27Q65.54 96.24 65.53 96.15Q65.52 96.05 65.5 95.95Q65.49 95.83 65.48 95.74Q65.47 95.64 65.47 95.61Q65.47 95.6 65.48 95.55Q65.5 95.5 65.51 95.45Q65.53 95.39 65.54 95.34L65.55 95.3Q65.56 95.27 65.58 95.19Q65.6 95.11 65.6 95.03Q65.6 94.89 65.59 94.74Q65.58 94.6 65.58 94.58Q65.59 94.52 65.6 94.35Q65.61 94.18 65.63 93.96Q65.65 93.73 65.67 93.49Q65.68 93.23 65.7 93.01Q65.72 92.79 65.73 92.63Q65.74 92.46 65.75 92.41Q65.75 92.38 65.74 92.33Q65.73 92.27 65.73 92.2Q65.73 92.15 65.74 92.12Q65.75 92.08 65.75 92.07Q65.77 91.98 65.78 91.95Q65.79 91.91 65.79 91.84Q65.79 91.64 65.73 91.55Q65.67 91.47 65.47 91.47Q65.3 91.47 65.22 91.54Q65.21 91.54 65.2 91.55Q65.14 91.62 65.1 91.72Q65.07 91.83 65.06 91.96Q65.05 92.09 65.02 92.2Q65.01 92.21 64.98 92.25Q64.96 92.28 64.94 92.33Q64.91 92.36 64.88 92.41Q64.87 92.44 64.87 92.45Q64.85 92.48 64.83 92.58Q64.81 92.68 64.8 92.79Q64.78 92.91 64.76 93.01Q64.75 93.11 64.74 93.14Q64.68 93.29 64.62 93.51Q64.56 93.73 64.43 93.85Q64.37 93.85 64.21 93.86Q64.05 93.87 63.87 93.87Q63.69 93.87 63.52 93.88Q63.36 93.89 63.3 93.89L62.52 93.89Q62.51 93.89 62.45 93.91Q62.4 93.92 62.33 93.94Q62.26 93.95 62.2 93.96Q62.13 93.97 62.12 93.97L61.67 93.97Q61.63 93.97 61.59 93.93Q61.54 93.87 61.52 93.85L61.52 93.79Q61.52 93.48 61.55 93.19Q61.6 92.9 61.6 92.62Q61.6 92.2 61.55 91.81Q61.52 91.4 61.52 91.01Q61.52 90.89 61.53 90.77Q61.55 90.63 61.59 90.49Q61.66 90.24 61.67 89.95L61.67 88.86Q61.67 88.85 61.71 88.83Q61.76 88.8 61.79 88.8L62.31 88.8Q62.34 88.8 62.45 88.79Q62.57 88.78 62.71 88.77Q62.85 88.75 62.96 88.74Q63.08 88.72 63.12 88.72L63.37 88.72Q63.39 88.72 63.46 88.74Q63.53 88.75 63.61 88.77Q63.69 88.78 63.75 88.79Q63.82 88.8 63.83 88.8L64.29 88.8Q64.37 88.81 64.56 88.83Q64.76 88.84 64.98 88.86Q65.2 88.86 65.39 88.88Q65.6 88.89 65.67 88.89Q65.81 88.94 65.89 89.02Q65.97 89.1 66.03 89.19Q66.1 89.27 66.16 89.36Q66.22 89.45 66.33 89.52Q66.34 89.53 66.4 89.55Q66.45 89.56 66.46 89.58Q66.48 89.61 66.52 89.66Q66.57 89.7 66.58 89.72Q66.59 89.73 66.6 89.74Q66.74 89.92 66.85 90.14Q66.98 90.36 67.1 90.53L67.14 90.58Q67.18 90.61 67.21 90.64Q67.25 90.68 67.28 90.71Q67.31 90.74 67.31 90.75Q67.36 90.82 67.38 90.9L67.43 91.04Q67.46 91.1 67.5 91.16Q67.55 91.22 67.64 91.28L67.71 91.28Q67.79 91.28 67.86 91.26Q67.86 91.26 67.87 91.26Q67.93 91.23 67.97 91.16L67.97 90.68Q67.97 90.63 67.96 90.52Q67.95 90.4 67.94 90.28Q67.93 90.16 67.92 90.05Q67.91 89.94 67.91 89.89Q67.89 89.77 67.86 89.54Q67.85 89.31 67.81 89.08Q67.78 88.84 67.71 88.65Q67.66 88.44 67.57 88.39Q67.53 88.36 67.45 88.31Q67.38 88.27 67.3 88.23Q67.23 88.19 67.17 88.16Q67.11 88.14 67.1 88.14Q67.09 88.13 66.99 88.12Q66.88 88.1 66.74 88.09Q66.61 88.08 66.47 88.07Q66.33 88.07 66.26 88.06L65.22 88.06Q65.19 88.06 65.09 88.05Q64.99 88.04 64.88 88.04Q64.76 88.03 64.66 88.02Q64.57 88.01 64.54 88.01L64.43 88.01Q64.38 88.01 64.3 88.02Q64.21 88.03 64.11 88.04Q64.02 88.04 63.94 88.05Q63.87 88.06 63.83 88.06L61.89 88.06Q61.54 88.06 61.19 88.07Q60.84 88.07 60.47 88.07Q60.02 88.07 59.58 88.07Q59.15 88.05 58.71 88.01Q58.69 88.01 58.64 87.98Q58.61 87.96 58.58 87.93L58.54 87.93Q58.28 87.93 58.11 87.98Q57.94 88.01 57.73 88.14Q57.71 88.14 57.7 88.14Q57.7 88.15 57.68 88.16L57.64 88.18Q57.64 88.36 57.73 88.48Q57.75 88.5 57.77 88.52Q57.86 88.61 57.97 88.66Q58.11 88.72 58.28 88.76Q58.44 88.79 58.58 88.8Q58.63 88.81 58.76 88.82Q58.89 88.83 59.03 88.84Q59.18 88.84 59.31 88.85Q59.44 88.86 59.5 88.86Q59.59 88.93 59.64 89.02Q59.65 89.05 59.66 89.08Q59.72 89.2 59.73 89.34Q59.75 89.47 59.76 89.62Q59.77 89.72 59.79 89.81Q59.8 89.85 59.81 89.89Q59.81 89.97 59.8 90.17Q59.8 90.36 59.79 90.59Q59.78 90.81 59.77 91.01Q59.76 91.2 59.75 91.28Q59.75 91.31 59.74 91.41Q59.73 91.52 59.73 91.64Q59.72 91.77 59.71 91.88Q59.7 91.99 59.7 92.01L59.7 92.07Q59.7 92.75 59.73 93.44Q59.75 94.12 59.75 94.82L59.75 95.3Q59.75 95.35 59.74 95.51Q59.74 95.66 59.73 95.87Q59.73 96.08 59.73 96.32Q59.72 96.55 59.71 96.76Q59.71 96.97 59.7 97.13L59.7 97.32Q59.7 97.87 59.68 98.38Q59.66 98.89 59.56 99.41Q59.56 99.44 59.53 99.5Q59.51 99.55 59.5 99.57Q59.44 99.62 59.34 99.73Q59.24 99.82 59.22 99.82L58.39 99.82Q58.31 99.82 58.22 99.88Q58.14 99.92 58.06 99.99Q57.99 100.06 57.94 100.15Q57.9 100.23 57.9 100.3Q57.89 100.31 57.89 100.32Q57.9 100.32 57.9 100.33Q57.9 100.33 57.9 100.33Q57.9 100.34 57.93 100.34Q58.02 100.58 58.13 100.63Q58.26 100.68 58.5 100.68L58.53 100.68Q58.56 100.68 58.58 100.67Q58.62 100.67 58.64 100.66Q58.66 100.66 58.72 100.65L58.86 100.63Q58.94 100.63 59 100.63Q59.08 100.62 59.1 100.62Q59.17 100.62 59.37 100.61Q59.58 100.6 59.81 100.6Q60.04 100.6 60.24 100.61Q60.46 100.62 60.54 100.62Q60.63 100.57 60.68 100.56Q60.74 100.55 60.83 100.55Q60.96 100.55 61.04 100.57Q61.14 100.59 61.27 100.63L63.58 100.63L64.66 100.7L64.87 100.62L64.92 100.62Q64.97 100.61 65.03 100.61L65.17 100.61ZM5.62 100.51L5.82 100.51Q6.73 100.51 7.63 100.63Q7.68 100.64 7.72 100.64Q8.03 100.69 8.3 100.73Q8.58 100.78 8.91 100.78L8.92 100.78Q9.1 100.67 9.21 100.56Q9.23 100.55 9.25 100.53Q9.33 100.42 9.33 100.25Q9.33 100.17 9.31 100.1Q9.29 100.02 9.24 99.96Q9.23 99.93 9.21 99.91Q9.13 99.81 9 99.76Q8.93 99.76 8.78 99.75Q8.63 99.75 8.46 99.74Q8.29 99.73 8.13 99.72Q7.98 99.71 7.91 99.7Q7.76 99.69 7.6 99.68Q7.44 99.66 7.31 99.61Q7.22 99.57 7.16 99.52Q7.12 99.48 7.09 99.45Q7.01 99.34 7.01 99.16Q7.01 98.54 7.04 97.93Q7.07 97.31 7.07 96.7Q7.07 96.2 7.04 95.73Q7.01 95.25 7.01 94.76Q7.01 94.31 7.07 93.89Q7.14 93.46 7.14 93.01Q7.14 92.89 7.15 92.55Q7.16 92.2 7.16 91.8Q7.16 91.4 7.15 91.06Q7.14 90.72 7.14 90.58Q7.15 90.55 7.16 90.49Q7.17 90.42 7.17 90.35Q7.18 90.28 7.18 90.22Q7.19 90.15 7.2 90.12Q7.2 90.11 7.25 90.02Q7.29 89.91 7.33 89.85Q7.34 89.81 7.4 89.73Q7.44 89.69 7.47 89.66Q7.47 89.64 7.61 89.61Q7.74 89.58 7.81 89.58L8.65 89.58Q8.69 89.58 8.79 89.62Q8.91 89.66 8.92 89.66Q9.18 89.69 9.4 89.69Q9.62 89.69 9.85 89.79Q10.21 89.95 10.54 90.17Q10.73 90.3 10.85 90.46Q10.97 90.61 11.03 90.78Q11.09 90.9 11.14 91.05Q11.19 91.19 11.25 91.33Q11.32 91.46 11.41 91.57Q11.48 91.65 11.55 91.7Q11.59 91.73 11.64 91.75Q11.66 91.77 11.68 91.77Q11.71 91.8 11.74 91.8Q11.78 91.8 11.83 91.78Q11.88 91.76 11.91 91.69Q11.94 91.45 11.96 91.26Q11.97 91.08 11.97 90.85L11.97 90.72Q11.97 90.71 11.97 90.67Q11.96 90.61 11.94 90.56Q11.93 90.5 11.92 90.46Q11.91 90.41 11.91 90.39Q11.9 90.28 11.86 90Q11.83 89.72 11.79 89.4Q11.76 89.08 11.74 88.8Q11.71 88.51 11.7 88.41Q11.64 88.24 11.52 88.18Q11.44 88.14 11.34 88.14L11.24 88.14Q11.09 88.19 10.93 88.32Q10.78 88.45 10.62 88.59Q10.46 88.72 10.3 88.83Q10.15 88.93 10 88.93L8.41 88.91Q8.01 88.91 7.75 88.92Q7.48 88.92 7.31 88.93Q7.14 88.94 7.04 88.95Q6.94 88.97 6.87 89Q6.83 89 6.72 88.99Q6.61 88.98 6.48 88.97Q6.35 88.95 6.24 88.94Q6.13 88.93 6.09 88.93Q6.08 88.92 6.02 88.92Q5.97 88.91 5.9 88.91L5.66 88.91Q5.43 88.91 5.23 88.95Q5.05 89 4.82 89L4.54 89Q4.53 89 4.49 88.99Q4.45 88.98 4.41 88.97Q4.37 88.95 4.34 88.94L4.3 88.93Q3.94 88.86 3.57 88.85Q3.2 88.83 2.83 88.83Q2.62 88.83 2.42 88.84Q2.22 88.85 2.03 88.85Q1.99 88.83 1.95 88.81Q1.89 88.78 1.84 88.72Q1.76 88.61 1.68 88.51Q1.64 88.47 1.6 88.42Q1.56 88.38 1.51 88.34Q1.5 88.33 1.49 88.32Q1.41 88.26 1.27 88.26Q1.21 88.26 1.17 88.28Q1.13 88.29 1.1 88.32Q1.03 88.37 0.98 88.45Q0.94 88.53 0.9 88.63Q0.87 88.72 0.85 88.79Q0.85 88.8 0.81 88.88Q0.79 88.96 0.75 89.06Q0.72 89.15 0.68 89.23Q0.65 89.31 0.65 89.33Q0.65 89.36 0.63 89.45Q0.61 89.52 0.58 89.63Q0.57 89.73 0.55 89.81Q0.53 89.9 0.53 89.93Q0.51 89.95 0.48 90.06Q0.45 90.17 0.42 90.29Q0.38 90.41 0.35 90.53Q0.32 90.63 0.31 90.66L0.31 90.72Q0.31 90.76 0.3 90.82L0.3 91.25Q0.31 91.31 0.31 91.37L0.31 91.45Q0.34 91.53 0.38 91.59L0.38 91.59Q0.43 91.64 0.53 91.64Q0.61 91.64 0.67 91.61Q0.72 91.59 0.77 91.55Q0.87 91.45 0.94 91.33Q1.01 91.19 1.06 91.06Q1.12 90.92 1.18 90.84Q1.19 90.83 1.28 90.73Q1.37 90.62 1.49 90.48Q1.6 90.34 1.72 90.21Q1.84 90.07 1.91 89.99L1.98 89.92Q2.03 89.87 2.03 89.85Q2.14 89.77 2.27 89.75Q2.3 89.74 2.33 89.74Q2.49 89.71 2.62 89.66Q2.69 89.66 2.85 89.66L3.53 89.66Q3.7 89.66 3.75 89.66Q3.77 89.66 3.84 89.65Q3.91 89.63 3.98 89.62Q4.06 89.6 4.12 89.59Q4.19 89.58 4.2 89.58Q4.25 89.58 4.35 89.59Q4.47 89.59 4.58 89.61Q4.71 89.62 4.81 89.64Q4.93 89.65 4.97 89.66Q5.09 89.77 5.16 89.89Q5.24 90.01 5.29 90.18Q5.29 90.3 5.28 90.6L5.28 91.22Q5.28 91.55 5.27 91.85L5.27 92.28Q5.27 92.65 5.28 93.02Q5.29 93.39 5.29 93.78Q5.29 94.69 5.28 95.61Q5.27 96.54 5.22 97.45Q5.22 97.48 5.21 97.58Q5.19 97.69 5.17 97.8Q5.16 97.92 5.15 98.01Q5.14 98.11 5.14 98.14L5.14 99.11Q5.14 99.25 5.1 99.38Q5.08 99.48 5.03 99.58Q5.03 99.58 5.03 99.58Q4.98 99.64 4.91 99.68Q4.84 99.71 4.74 99.74Q4.65 99.75 4.57 99.76L4.42 99.76Q4.34 99.78 4.12 99.8Q3.9 99.81 3.65 99.82Q3.41 99.83 3.19 99.84Q2.97 99.85 2.89 99.86Q2.87 99.87 2.86 99.88Q2.78 99.92 2.74 100.02Q2.68 100.13 2.68 100.25Q2.68 100.36 2.74 100.43Q2.76 100.45 2.78 100.48Q2.88 100.55 3.01 100.6Q3.02 100.6 3.03 100.6Q3.15 100.63 3.28 100.63Q3.43 100.64 3.53 100.64Q3.99 100.64 4.44 100.63Q4.9 100.62 5.35 100.57Q5.36 100.57 5.4 100.56L5.49 100.55Q5.53 100.53 5.57 100.52Q5.61 100.51 5.62 100.51ZM40.42 93.39Q40.46 93.49 40.49 93.65Q40.48 93.76 40.47 93.96L40.47 97.12Q40.48 97.3 40.49 97.41Q40.49 97.88 40.56 98.37Q40.64 98.86 40.82 99.28Q40.87 99.4 40.94 99.5Q41.02 99.59 41.1 99.67Q41.18 99.75 41.26 99.83Q41.34 99.91 41.41 100.03L41.47 100.07Q41.52 100.12 41.63 100.2Q41.73 100.27 41.84 100.35Q41.95 100.43 42.04 100.49Q42.13 100.55 42.16 100.55Q42.23 100.6 42.31 100.62Q42.32 100.62 42.34 100.63Q42.44 100.65 42.53 100.66L42.75 100.7Q42.81 100.71 42.87 100.73Q42.91 100.74 42.95 100.76L43.47 100.76Q43.64 100.76 43.77 100.74Q43.91 100.72 44.03 100.7Q44.15 100.68 44.27 100.65Q44.41 100.63 44.57 100.62L44.83 100.62Q44.84 100.61 44.9 100.57Q44.96 100.53 45.03 100.48Q45.11 100.42 45.18 100.38L45.29 100.3Q45.57 100.05 45.81 99.82Q46.01 99.63 46.15 99.42Q46.19 99.35 46.23 99.28Q46.24 99.25 46.3 99.16Q46.35 99.06 46.4 98.95Q46.46 98.83 46.51 98.74Q46.55 98.64 46.57 98.62Q46.58 98.6 46.64 98.52Q46.7 98.42 46.7 98.39Q46.71 98.39 46.72 98.34Q46.74 98.28 46.74 98.22Q46.74 98.15 46.75 98.08Q46.76 98.01 46.78 98Q46.78 97.98 46.8 97.92Q46.81 97.85 46.83 97.77Q46.86 97.69 46.88 97.63Q46.89 97.56 46.9 97.53Q46.93 97.44 46.93 97.36L46.95 97.21Q46.96 97.12 46.97 97.04Q46.99 96.95 47.03 96.86Q47.04 96.77 47.05 96.53Q47.06 96.29 47.07 96.03Q47.09 95.76 47.1 95.52Q47.1 95.28 47.11 95.18L47.11 94.45Q47.11 94.45 47.14 94.36Q47.17 94.27 47.17 94.24L47.17 94.09Q47.17 93.95 47.14 93.85Q47.11 93.74 47.11 93.6Q47.11 93.52 47.13 93.45Q47.16 93.38 47.2 93.31Q47.25 93.23 47.33 93.18Q47.37 93.14 47.43 93.12Q47.55 93.07 47.69 93.04Q47.84 93.01 47.97 92.97Q48.1 92.92 48.18 92.83L48.18 92.83Q48.26 92.73 48.26 92.56Q48.26 92.54 48.26 92.47Q48.26 92.4 48.24 92.37Q48.12 92.29 47.96 92.27Q47.79 92.24 47.61 92.24Q47.5 92.24 47.39 92.25Q47.28 92.26 47.2 92.26L46.66 92.26Q46.56 92.26 46.42 92.28Q46.29 92.31 46.22 92.31Q46.07 92.31 45.91 92.3Q45.75 92.28 45.59 92.28Q45.37 92.28 45.17 92.33Q45.11 92.34 45.05 92.36Q44.92 92.42 44.83 92.54Q44.82 92.56 44.81 92.58Q44.8 92.6 44.8 92.62L44.8 92.7Q44.81 92.71 44.83 92.76Q44.98 92.95 45.15 93.01Q45.34 93.07 45.56 93.12Q45.59 93.14 45.64 93.14Q45.67 93.14 45.7 93.13Q45.73 93.12 45.78 93.12Q45.83 93.12 45.89 93.18Q45.91 93.18 45.93 93.23Q45.94 93.28 45.95 93.32Q45.99 93.36 46.04 93.49Q46.09 93.61 46.11 93.65Q46.11 93.73 46.12 93.93Q46.14 94.11 46.16 94.32Q46.18 94.53 46.2 94.72Q46.22 94.9 46.23 94.97L46.23 95.74Q46.23 95.76 46.22 95.81Q46.21 95.85 46.2 95.91Q46.2 95.97 46.19 96.02Q46.18 96.06 46.18 96.07Q46.16 96.36 46.15 96.67Q46.14 96.98 46.12 97.29Q46.1 97.6 46.05 97.9Q46 98.2 45.89 98.47Q45.89 98.49 45.87 98.55Q45.86 98.61 45.83 98.68Q45.81 98.74 45.79 98.81Q45.77 98.87 45.76 98.88Q45.65 99.06 45.45 99.28Q45.29 99.47 45.08 99.55Q45.05 99.56 45.03 99.57Q44.99 99.58 44.91 99.6Q44.83 99.61 44.76 99.62Q44.66 99.65 44.57 99.68L44.43 99.68Q44.42 99.68 44.37 99.69Q44.33 99.71 44.27 99.74L44.16 99.79Q44.11 99.82 44.1 99.82L43.98 99.82Q43.88 99.82 43.8 99.8Q43.72 99.77 43.65 99.75Q43.58 99.71 43.5 99.68Q43.42 99.65 43.33 99.64L43.33 99.64Q43.32 99.63 43.26 99.63Q43.22 99.63 43.16 99.61Q43.1 99.57 43.08 99.57Q42.97 99.54 42.85 99.45Q42.74 99.35 42.62 99.23Q42.51 99.1 42.41 98.96Q42.32 98.83 42.29 98.74Q42.25 98.68 42.22 98.58Q42.18 98.47 42.15 98.36Q42.12 98.24 42.09 98.14Q42.07 98.02 42.06 97.95Q42.06 97.91 42.05 97.8Q42.05 97.7 42.04 97.58Q42.03 97.46 42.02 97.36Q42.02 97.24 42.02 97.2Q42.02 97.18 42.01 97.11Q42 97.04 41.98 96.96Q41.97 96.88 41.95 96.81Q41.95 96.74 41.95 96.72L41.95 96.54L41.98 96.4Q42.02 96.29 42.02 96.25L42.02 95.47Q42.02 95.45 42.02 95.37Q42.03 95.29 42.03 95.2Q42.04 95.11 42.05 95.03Q42.06 94.95 42.06 94.93Q42.06 94.93 42.07 94.92Q42.09 94.9 42.09 94.87Q42.09 94.82 42.09 94.79Q42.09 94.67 42.05 94.58Q42.02 94.49 42.02 94.35Q42.02 94.24 42.02 94.09Q42.03 93.94 42.06 93.79Q42.09 93.63 42.15 93.5Q42.2 93.36 42.29 93.26Q42.37 93.16 42.51 93.11Q42.66 93.05 42.8 92.99Q42.95 92.93 43.05 92.85Q43.09 92.82 43.11 92.78Q43.16 92.72 43.16 92.62Q43.16 92.48 43.09 92.4Q43.05 92.35 42.98 92.33Q42.82 92.26 42.61 92.26L42.55 92.26Q42.53 92.26 42.46 92.28Q42.38 92.31 42.35 92.31Q42.18 92.34 42.04 92.35L41.76 92.36Q41.62 92.37 41.47 92.37L40.82 92.37Q40.57 92.33 40.41 92.31Q40.25 92.28 40.1 92.28Q40 92.28 39.89 92.29Q39.78 92.3 39.7 92.31Q39.65 92.33 39.57 92.35Q39.49 92.36 39.48 92.37Q39.44 92.4 39.43 92.46L39.43 92.53Q39.43 92.58 39.46 92.7Q39.48 92.8 39.54 92.86Q39.56 92.88 39.66 92.91Q39.72 92.92 39.78 92.94Q39.82 92.95 39.86 92.97L40.13 93.1Q40.23 93.15 40.3 93.22Q40.37 93.29 40.42 93.39ZM12.62 100.52Q12.67 100.58 12.67 100.62Q12.72 100.63 12.83 100.65Q12.93 100.68 13.05 100.7Q13.16 100.72 13.26 100.74Q13.36 100.76 13.41 100.76Q13.45 100.76 13.56 100.72Q13.66 100.69 13.7 100.66Q13.71 100.66 13.77 100.67Q13.82 100.68 13.88 100.68Q13.94 100.68 13.94 100.66L13.94 100.66Q13.97 100.66 14.03 100.65Q14.09 100.65 14.15 100.64Q14.22 100.64 14.28 100.63Q14.34 100.63 14.37 100.62L17.7 100.62Q17.73 100.62 17.89 100.61Q18.06 100.6 18.23 100.59Q18.42 100.58 18.58 100.57Q18.73 100.55 18.78 100.54L19.09 100.54Q19.16 100.55 19.33 100.56Q19.5 100.57 19.68 100.58Q19.87 100.59 20.03 100.6Q20.19 100.61 20.25 100.62Q20.28 100.61 20.31 100.61Q20.4 100.59 20.48 100.52Q20.49 100.52 20.49 100.51Q20.6 100.43 20.68 100.3Q20.75 100.17 20.8 100.03Q20.84 99.88 20.84 99.76L20.84 99.74Q20.84 99.7 20.83 99.53Q20.83 99.37 20.82 99.18Q20.82 98.99 20.81 98.82Q20.8 98.66 20.8 98.61L20.8 98.43Q20.8 98.32 20.77 98.23Q20.76 98.19 20.74 98.16Q20.7 98.12 20.61 98.12L20.6 98.12Q20.59 98.12 20.59 98.12Q20.59 98.12 20.59 98.14Q20.57 98.15 20.55 98.16Q20.53 98.19 20.53 98.2Q20.52 98.22 20.48 98.27Q20.46 98.31 20.42 98.37L20.35 98.48Q20.32 98.52 20.32 98.55Q20.31 98.57 20.27 98.61L20.19 98.69L20.1 98.76Q20.06 98.79 20.05 98.79Q20.04 98.81 19.99 98.9Q19.94 98.98 19.9 99.01Q19.83 99.16 19.79 99.31Q19.74 99.46 19.65 99.6Q19.62 99.65 19.59 99.68Q19.57 99.69 19.54 99.7Q19.52 99.7 19.47 99.71Q19.44 99.71 19.37 99.74Q19.37 99.74 19.33 99.77Q19.3 99.81 19.24 99.85L19.16 99.92Q19.11 99.95 19.09 99.95L18.5 99.95Q18.49 99.95 18.43 99.97Q18.37 99.97 18.3 99.99Q18.23 100 18.17 100.02Q18.11 100.03 18.09 100.03L16.76 100.03Q16.74 100 16.69 99.97Q16.65 99.95 16.63 99.95Q16.41 99.89 16.26 99.86Q16.11 99.83 16.02 99.78Q16 99.77 15.98 99.76Q15.91 99.71 15.88 99.61Q15.83 99.48 15.83 99.22Q15.83 98.7 15.87 98.23Q15.9 97.74 15.9 97.22L15.9 96.92L16.03 96.78L16.08 96.78Q16.12 96.78 16.18 96.78L16.29 96.78Q16.35 96.77 16.38 96.77Q16.42 96.77 16.5 96.78L16.66 96.78Q16.75 96.78 16.81 96.78L16.91 96.78Q16.94 96.78 17.05 96.8Q17.16 96.81 17.28 96.84Q17.41 96.85 17.53 96.88Q17.64 96.91 17.7 96.92L17.82 96.99Q17.89 97.02 17.92 97.06Q17.92 97.1 17.92 97.2Q17.93 97.29 17.94 97.41Q17.95 97.51 17.96 97.61Q17.98 97.7 17.99 97.72Q18 97.8 18.03 97.9Q18.07 97.99 18.12 98.08Q18.17 98.16 18.23 98.23Q18.28 98.27 18.33 98.28Q18.35 98.28 18.36 98.28Q18.47 98.28 18.54 98.24Q18.62 98.21 18.72 98.14Q18.72 98.11 18.73 98.04Q18.74 97.97 18.74 97.9Q18.75 97.82 18.76 97.76Q18.77 97.7 18.78 97.68L18.78 96.92Q18.78 96.85 18.79 96.68Q18.79 96.49 18.8 96.29Q18.81 96.09 18.82 95.9Q18.83 95.72 18.84 95.64Q18.88 95.57 18.9 95.5Q18.92 95.42 18.92 95.34L18.92 95.02Q18.92 94.9 18.88 94.82Q18.87 94.78 18.85 94.76Q18.81 94.72 18.73 94.72Q18.62 94.72 18.5 94.74Q18.42 94.77 18.35 94.82Q18.34 94.83 18.32 94.85Q18.3 94.87 18.29 94.99Q18.27 95.11 18.25 95.14Q18.24 95.15 18.2 95.24Q18.16 95.32 18.11 95.45Q18.06 95.56 18 95.69Q17.95 95.8 17.92 95.86Q17.91 95.87 17.89 95.9Q17.87 95.94 17.85 95.98Q17.82 96.03 17.8 96.07Q17.78 96.12 17.78 96.13Q17.46 96.18 17.23 96.19Q17.01 96.2 16.71 96.2L16.23 96.2Q16.13 96.17 16.04 96.09Q15.96 96.01 15.9 95.93Q15.89 95.9 15.88 95.79L15.86 95.56Q15.85 95.44 15.84 95.33Q15.83 95.23 15.83 95.18L15.83 95.07Q15.83 94.98 15.85 94.76Q15.87 94.54 15.89 94.3Q15.91 94.05 15.93 93.83Q15.96 93.61 15.96 93.51L16.05 93.29Q16.11 93.16 16.17 93.07Q16.19 93.03 16.22 93Q16.28 92.95 16.34 92.91Q16.45 92.85 16.61 92.85L16.63 92.85Q16.66 92.85 16.77 92.86Q16.9 92.86 17.04 92.86Q17.18 92.86 17.29 92.87Q17.41 92.88 17.44 92.89L17.47 92.89Q17.49 92.89 17.56 92.87Q17.62 92.85 17.65 92.85L17.7 92.85Q17.71 92.86 17.78 92.88Q17.85 92.9 17.93 92.92Q18.02 92.93 18.09 92.95Q18.16 92.97 18.19 92.97Q18.19 92.98 18.23 92.99Q18.29 93 18.34 93.01Q18.4 93.02 18.44 93.03Q18.5 93.04 18.5 93.04L18.51 93.04Q18.55 93.04 18.58 93.12Q18.6 93.14 18.65 93.22Q18.72 93.29 18.78 93.39Q18.85 93.48 18.9 93.56Q18.96 93.64 18.98 93.65L19.08 93.75Q19.17 93.83 19.19 93.87Q19.25 93.96 19.29 94.06Q19.31 94.1 19.32 94.15Q19.37 94.3 19.42 94.45Q19.47 94.6 19.55 94.74Q19.63 94.87 19.78 94.97Q19.78 94.98 19.78 94.98Q19.79 94.99 19.81 94.99L19.84 94.99Q19.85 94.99 19.85 94.99Q19.86 94.98 19.86 94.97Q19.88 94.97 19.92 94.93Q19.96 94.88 19.98 94.85Q19.99 94.79 20.01 94.65Q20.03 94.5 20.05 94.35Q20.08 94.19 20.1 94.06Q20.11 93.92 20.11 93.87L20.11 92.85Q20.06 92.64 19.95 92.51Q19.94 92.5 19.93 92.49Q19.82 92.37 19.57 92.37L15.44 92.37Q15.39 92.36 15.29 92.35Q15.18 92.35 15.06 92.34L14.83 92.32Q14.73 92.31 14.69 92.3L14.46 92.3Q14.05 92.3 13.64 92.35Q13.24 92.39 12.82 92.37Q12.78 92.48 12.77 92.54L12.77 92.68Q12.77 92.85 12.86 92.93Q12.89 92.96 12.94 92.98Q13.11 93.04 13.35 93.04L13.71 93.04Q13.86 93.04 13.98 93.06Q14.11 93.07 14.21 93.14Q14.22 93.14 14.24 93.15Q14.31 93.21 14.37 93.29Q14.43 93.4 14.43 93.58L14.43 97.41Q14.42 97.43 14.4 97.5Q14.38 97.57 14.37 97.66Q14.36 97.74 14.35 97.81Q14.34 97.88 14.34 97.91L14.34 97.97Q14.34 98.28 14.35 98.56Q14.37 98.83 14.37 99.14L14.37 99.28Q14.37 99.4 14.34 99.54Q14.33 99.6 14.3 99.65Q14.26 99.7 14.2 99.74L14.15 99.75Q14.12 99.77 14.07 99.79Q14.02 99.8 13.97 99.82Q13.93 99.82 13.9 99.82L13.28 99.82Q13.23 99.82 13.13 99.85Q13.03 99.87 13.01 99.89Q12.99 99.91 12.91 99.97L12.77 100.12Q12.7 100.19 12.64 100.26Q12.58 100.33 12.56 100.36L12.56 100.41Q12.57 100.45 12.62 100.52ZM54.16 93.6Q54.15 93.61 54.13 93.62Q54.08 93.68 54.01 93.83Q53.95 93.98 53.87 94.15Q53.79 94.31 53.7 94.46Q53.61 94.61 53.52 94.68Q53.3 94.85 53.16 94.95Q53.03 95.03 52.92 95.03Q52.89 95.03 52.87 95.03Q52.83 95.01 52.8 94.98Q52.76 94.93 52.69 94.84Q52.67 94.8 52.57 94.63Q52.47 94.46 52.36 94.27Q52.25 94.07 52.16 93.9Q52.07 93.73 52.04 93.68Q52.01 93.64 51.96 93.53Q51.9 93.42 51.9 93.35Q51.9 93.19 51.97 93.14Q52.04 93.08 52.13 93.05Q52.19 93.03 52.23 93Q52.26 92.98 52.29 92.95Q52.36 92.88 52.36 92.71Q52.36 92.53 52.28 92.47Q52.27 92.46 52.25 92.46Q52.16 92.41 51.95 92.41Q51.39 92.41 50.84 92.44Q50.29 92.48 49.73 92.48L49.69 92.48Q49.67 92.48 49.63 92.47Q49.59 92.46 49.54 92.45L49.45 92.43L49.42 92.42L49.38 92.42Q49.28 92.42 49.24 92.45L49.24 92.45Q49.2 92.48 49.2 92.57Q49.2 92.64 49.21 92.71Q49.21 92.72 49.21 92.72Q49.23 92.78 49.29 92.82Q49.42 92.93 49.55 93.02Q49.68 93.11 49.8 93.2Q49.93 93.29 50.06 93.39Q50.18 93.49 50.29 93.62Q50.42 93.77 50.51 93.94Q50.53 94 50.56 94.06Q50.66 94.3 50.84 94.52Q50.87 94.54 50.9 94.57Q50.91 94.59 50.92 94.6Q50.94 94.6 50.95 94.6L50.96 94.62Q50.97 94.64 50.98 94.69L51.05 94.9Q51.07 94.95 51.09 94.96Q51.13 95.02 51.19 95.17Q51.26 95.32 51.3 95.39Q51.31 95.4 51.34 95.47Q51.38 95.53 51.43 95.61L51.52 95.75Q51.56 95.82 51.57 95.84Q51.67 96.1 51.8 96.3Q51.92 96.49 52.17 96.64L52.17 96.72Q52.18 96.78 52.18 96.84Q52.18 96.9 52.18 96.95Q52.19 97 52.19 97.03Q52.19 97.06 52.18 97.12Q52.18 97.17 52.18 97.23Q52.18 97.29 52.17 97.35L52.17 97.39Q52.17 97.4 52.13 97.45Q52.11 97.5 52.06 97.56Q52.03 97.62 51.97 97.69Q51.93 97.75 51.9 97.79Q51.89 97.8 51.83 97.86Q51.77 97.92 51.75 97.94Q51.6 98.24 51.43 98.53Q51.27 98.81 51.04 99.08Q51 99.12 50.88 99.23Q50.78 99.33 50.66 99.45L50.44 99.67Q50.33 99.76 50.29 99.8Q50.16 99.89 50.01 99.95Q49.86 100 49.71 100.06Q49.57 100.12 49.43 100.2Q49.3 100.28 49.2 100.41L49.2 100.48Q49.2 100.5 49.21 100.56Q49.21 100.58 49.22 100.59Q49.25 100.62 49.29 100.62L51.75 100.62Q51.83 100.6 51.89 100.56Q51.89 100.56 51.9 100.56Q51.95 100.51 51.95 100.41Q51.92 100.37 51.89 100.34Q51.82 100.27 51.72 100.23Q51.58 100.17 51.44 100.13Q51.3 100.09 51.19 100.04Q51.14 100.01 51.12 99.97Q51.09 99.93 51.09 99.86L51.09 99.8Q51.1 99.78 51.12 99.74Q51.15 99.68 51.16 99.68Q51.19 99.64 51.3 99.47Q51.41 99.31 51.53 99.11Q51.67 98.92 51.77 98.76Q51.88 98.59 51.9 98.55Q51.96 98.45 52.01 98.32Q52.06 98.19 52.13 98.08Q52.2 97.95 52.3 97.87Q52.32 97.85 52.35 97.84Q52.43 97.79 52.54 97.79Q52.62 97.79 52.73 97.92Q52.83 98.05 52.95 98.25Q53.07 98.45 53.18 98.7Q53.29 98.95 53.38 99.18Q53.48 99.41 53.53 99.61Q53.58 99.8 53.58 99.89Q53.58 100.05 53.51 100.11Q53.45 100.17 53.37 100.21Q53.3 100.25 53.23 100.3Q53.17 100.35 53.17 100.49L53.17 100.55Q53.2 100.57 53.31 100.6Q53.42 100.62 53.46 100.62Q53.49 100.62 53.63 100.63Q53.76 100.63 53.91 100.63Q54.07 100.64 54.2 100.65Q54.34 100.66 54.38 100.66Q54.39 100.68 54.44 100.69Q54.5 100.7 54.56 100.72Q54.62 100.74 54.67 100.75Q54.72 100.76 54.73 100.76L54.78 100.76Q54.81 100.76 54.95 100.75Q55.09 100.74 55.25 100.72Q55.42 100.7 55.56 100.69Q55.7 100.68 55.74 100.66Q55.8 100.66 55.88 100.67Q55.96 100.68 56.04 100.68Q56.18 100.68 56.29 100.63Q56.32 100.61 56.34 100.6Q56.4 100.54 56.4 100.41Q56.4 100.3 56.35 100.23Q56.33 100.21 56.32 100.19Q56.24 100.12 56.11 100.07Q56 100.03 55.88 99.99Q55.75 99.95 55.67 99.89Q55.45 99.7 55.29 99.5Q55.12 99.3 54.99 99.08Q54.88 98.89 54.79 98.71Q54.76 98.66 54.74 98.61Q54.63 98.37 54.52 98.12L54.31 97.72Q54.29 97.7 54.23 97.61Q54.18 97.52 54.11 97.43Q54.04 97.32 53.98 97.24Q53.92 97.15 53.92 97.14Q53.91 97.12 53.86 97.04Q53.83 96.96 53.78 96.86L53.67 96.67Q53.62 96.56 53.58 96.51Q53.49 96.34 53.4 96.13Q53.3 95.93 53.3 95.75Q53.3 95.66 53.32 95.61Q53.34 95.55 53.38 95.49Q53.45 95.35 53.56 95.2Q53.66 95.05 53.78 94.96Q53.81 94.93 53.83 94.91Q53.86 94.88 53.88 94.85Q53.92 94.79 53.96 94.74Q53.99 94.72 54.06 94.64Q54.13 94.55 54.21 94.45Q54.29 94.36 54.36 94.28Q54.43 94.19 54.46 94.16Q54.73 93.83 55.03 93.6Q55.34 93.36 55.74 93.22Q55.86 93.19 56.02 93.16Q56.18 93.14 56.33 93.09Q56.48 93.04 56.58 92.94Q56.59 92.93 56.61 92.91Q56.68 92.82 56.68 92.66Q56.68 92.53 56.64 92.46Q56.62 92.43 56.59 92.4Q56.56 92.38 56.52 92.36Q56.45 92.34 56.34 92.34Q56.25 92.33 56.13 92.33Q55.98 92.33 55.83 92.35Q55.68 92.35 55.52 92.42L53.98 92.42Q53.96 92.42 53.85 92.44Q53.76 92.46 53.71 92.48Q53.67 92.49 53.61 92.51Q53.56 92.53 53.5 92.56Q53.45 92.57 53.41 92.61Q53.4 92.62 53.39 92.64Q53.38 92.66 53.38 92.68Q53.38 92.74 53.41 92.78Q53.44 92.83 53.51 92.86Q53.65 92.91 53.81 92.95Q53.98 92.99 54.11 93.07Q54.16 93.09 54.19 93.13Q54.25 93.2 54.25 93.32Q54.25 93.41 54.22 93.5Q54.2 93.56 54.16 93.6ZM31.08 100.63Q31.17 100.62 31.19 100.62Q31.2 100.62 31.28 100.63Q31.35 100.64 31.44 100.66Q31.54 100.68 31.62 100.69Q31.7 100.7 31.72 100.7Q31.77 100.7 31.85 100.7Q31.93 100.7 32 100.66Q32 100.66 32.1 100.63Q32.21 100.62 32.22 100.62L32.81 100.62Q32.85 100.62 32.98 100.61Q33.12 100.6 33.27 100.59Q33.42 100.58 33.55 100.57Q33.68 100.56 33.73 100.55L33.87 100.55Q33.88 100.56 33.92 100.57Q33.96 100.58 34.02 100.59Q34.07 100.6 34.11 100.61Q34.16 100.62 34.17 100.62Q34.25 100.63 34.39 100.63Q34.54 100.64 34.69 100.64Q34.84 100.65 34.97 100.65Q35.1 100.66 35.14 100.66Q35.15 100.67 35.33 100.67Q35.5 100.68 35.73 100.68L37.37 100.68Q37.62 100.68 37.83 100.67Q38.04 100.67 38.12 100.66Q38.35 100.61 38.45 100.54Q38.53 100.48 38.57 100.4Q38.58 100.38 38.59 100.36Q38.63 100.26 38.63 100.12Q38.63 99.97 38.65 99.76Q38.65 99.75 38.68 99.68Q38.7 99.6 38.7 99.58L38.7 99.53Q38.71 99.49 38.71 99.43L38.71 99.2Q38.71 99.1 38.7 98.95Q38.7 98.8 38.67 98.65Q38.63 98.5 38.55 98.39Q38.51 98.34 38.46 98.31Q38.41 98.28 38.33 98.28Q38.26 98.28 38.25 98.29Q38.24 98.3 38.2 98.34Q38.17 98.37 38.12 98.45Q38.07 98.52 38 98.6L37.88 98.76Q37.82 98.83 37.79 98.87Q37.79 98.88 37.74 98.98Q37.68 99.07 37.66 99.08L37.62 99.12Q37.61 99.12 37.58 99.14Q37.55 99.16 37.52 99.18L37.45 99.24Q37.42 99.25 37.42 99.26Q37.41 99.27 37.39 99.31Q37.37 99.34 37.36 99.39Q37.34 99.42 37.32 99.46Q37.3 99.5 37.3 99.51Q37.28 99.54 37.22 99.61Q37.16 99.67 37.09 99.74L36.98 99.85Q36.93 99.9 36.91 99.9Q36.9 99.91 36.84 99.93Q36.78 99.94 36.7 99.95Q36.62 99.96 36.53 99.97Q36.45 99.97 36.42 99.97L34.93 99.97Q34.68 99.97 34.4 100.02Q34.12 100.05 33.87 100.1L33.82 100.1Q33.76 100.1 33.71 100.08Q33.62 100.05 33.55 99.96Q33.48 99.85 33.46 99.74Q33.46 99.69 33.46 99.64L33.46 99.61Q33.46 99.58 33.46 99.56Q33.46 99.53 33.47 99.51Q33.47 99.48 33.5 99.45Q33.53 99.4 33.53 99.39Q33.53 99.37 33.5 99.3Q33.47 99.22 33.47 99.2L33.47 99.08Q33.47 99.06 33.48 98.98Q33.49 98.9 33.5 98.81Q33.51 98.71 33.52 98.62Q33.53 98.53 33.53 98.51L33.53 96.66Q33.53 96.63 33.53 96.54Q33.55 96.44 33.56 96.34Q33.58 96.22 33.59 96.13Q33.6 96.04 33.6 96.03L33.6 94.9Q33.6 94.5 33.62 94.11Q33.65 93.73 33.73 93.33Q33.75 93.26 33.79 93.22Q33.82 93.18 33.86 93.17Q33.89 93.16 33.91 93.15Q33.94 93.15 34.05 93.15Q34.17 93.13 34.3 93.12Q34.43 93.1 34.54 93.09Q34.67 93.07 34.7 93.07Q34.8 93.06 34.95 92.98Q35.1 92.89 35.17 92.85Q35.17 92.83 35.19 92.78Q35.2 92.73 35.2 92.71Q35.2 92.58 35.14 92.51Q35.14 92.51 35.14 92.51Q35.12 92.48 35.1 92.46Q35.06 92.43 35 92.42Q34.91 92.38 34.81 92.37Q34.7 92.36 34.6 92.36Q34.58 92.36 34.56 92.37L34.5 92.37Q34.49 92.37 34.44 92.38Q34.4 92.39 34.33 92.4L34.23 92.42Q34.18 92.42 34.17 92.42L33.73 92.42Q33.72 92.42 33.66 92.43Q33.6 92.44 33.53 92.45Q33.47 92.46 33.41 92.48Q33.35 92.49 33.33 92.49L33.15 92.49Q33.1 92.49 32.95 92.48Q32.79 92.46 32.6 92.45Q32.43 92.44 32.27 92.43Q32.11 92.42 32.07 92.42Q32.04 92.42 31.95 92.43Q31.87 92.44 31.78 92.45Q31.69 92.46 31.61 92.47Q31.53 92.48 31.5 92.48Q31.41 92.49 31.23 92.46Q31.06 92.42 30.93 92.42Q30.87 92.42 30.78 92.46Q30.7 92.49 30.63 92.54Q30.6 92.57 30.57 92.6Q30.54 92.63 30.51 92.66Q30.48 92.7 30.47 92.73Q30.46 92.77 30.46 92.8Q30.46 92.9 30.5 92.96Q30.52 92.99 30.55 93.01Q30.66 93.07 30.82 93.1Q30.98 93.13 31.16 93.14Q31.35 93.14 31.52 93.16Q31.7 93.19 31.82 93.25Q31.89 93.28 31.94 93.33Q31.98 93.37 32 93.44Q32 93.45 32 93.51Q32.02 93.57 32.03 93.65L32.05 93.79Q32.07 93.86 32.07 93.89L32.07 95.11Q32.07 95.27 32.05 95.52Q32.04 95.76 32.02 96Q32.01 96.24 32 96.41Q32 96.58 32 96.59L31.95 96.7L31.95 96.88Q31.96 96.99 31.96 97.14Q31.96 97.28 31.95 97.4L31.95 97.56Q31.95 97.66 31.94 97.91Q31.93 98.15 31.93 98.42Q31.92 98.68 31.91 98.91Q31.9 99.13 31.9 99.2Q31.9 99.23 31.89 99.3Q31.88 99.37 31.86 99.46Q31.86 99.53 31.84 99.61Q31.83 99.68 31.83 99.72Q31.83 99.74 31.82 99.76Q31.81 99.79 31.8 99.82Q31.79 99.86 31.79 99.9Q31.74 99.96 31.51 99.97Q31.28 99.98 31.03 100Q30.77 100.01 30.56 100.05Q30.38 100.09 30.35 100.16Q30.35 100.17 30.35 100.18L30.35 100.31Q30.35 100.43 30.41 100.5Q30.43 100.54 30.47 100.57Q30.5 100.59 30.54 100.61Q30.62 100.64 30.73 100.65Q30.84 100.66 30.96 100.66L30.99 100.66Q31 100.66 31.08 100.63ZM22.2 100.57L22.28 100.57Q22.31 100.57 22.42 100.59Q22.54 100.6 22.68 100.62Q22.82 100.63 22.93 100.63Q23.05 100.64 23.08 100.64L23.95 100.64Q23.98 100.65 24.07 100.66Q24.16 100.67 24.25 100.68Q24.35 100.69 24.44 100.7Q24.53 100.7 24.57 100.7Q24.7 100.67 24.77 100.59Q24.84 100.49 24.84 100.34Q24.84 100.22 24.78 100.14Q24.77 100.13 24.75 100.12Q24.67 100.04 24.53 100Q24.4 99.96 24.25 99.94Q24.1 99.91 23.97 99.88Q23.84 99.84 23.75 99.78Q23.73 99.77 23.72 99.75Q23.66 99.68 23.66 99.57Q23.66 99.32 23.68 99.1Q23.69 99.02 23.7 98.94Q23.73 98.79 23.8 98.64Q23.83 98.62 23.88 98.53Q23.95 98.45 23.95 98.43Q23.95 98.42 23.96 98.37Q23.99 98.3 24.01 98.24Q24.03 98.17 24.05 98.12Q24.08 98.06 24.09 98.05Q24.09 98.01 24.16 97.95Q24.22 97.95 24.28 97.96Q24.34 97.97 24.4 97.97Q24.71 97.97 24.98 97.93Q25.26 97.88 25.58 97.88L25.76 97.88Q25.92 97.88 26.09 97.92Q26.18 97.93 26.25 97.97Q26.31 98.02 26.36 98.09Q26.39 98.14 26.42 98.23Q26.47 98.3 26.5 98.39L26.58 98.55Q26.62 98.62 26.63 98.64Q26.64 98.66 26.67 98.77Q26.7 98.88 26.72 99.02Q26.76 99.16 26.78 99.3Q26.82 99.44 26.83 99.52L26.85 99.58L26.83 99.64Q26.75 99.77 26.63 99.83Q26.61 99.84 26.58 99.85Q26.43 99.9 26.27 99.93Q26.2 99.95 26.13 99.97Q26.05 100 25.98 100.03Q25.96 100.04 25.94 100.05Q25.83 100.11 25.76 100.25Q25.76 100.26 25.76 100.28L25.76 100.34Q25.76 100.44 25.77 100.49Q25.79 100.54 25.89 100.57Q26.03 100.57 26.38 100.59Q26.74 100.6 27.14 100.62Q27.54 100.63 27.89 100.63Q28.24 100.64 28.38 100.64L28.74 100.64Q28.87 100.64 29.01 100.63Q29.15 100.63 29.26 100.58Q29.38 100.54 29.45 100.46Q29.45 100.45 29.46 100.44Q29.53 100.36 29.53 100.22Q29.53 100.18 29.51 100.14Q29.48 100.05 29.38 99.99Q29.23 99.9 29.03 99.83L28.64 99.69Q28.45 99.62 28.38 99.52Q28.23 99.32 28.16 99.05Q28.09 98.79 28.05 98.56Q28.04 98.56 28.01 98.52Q28 98.46 27.97 98.41Q27.94 98.35 27.93 98.3Q27.91 98.25 27.91 98.24Q27.9 98.23 27.89 98.18Q27.88 98.13 27.87 98.08Q27.86 98.01 27.85 97.97Q27.84 97.93 27.84 97.91Q27.83 97.88 27.8 97.82Q27.78 97.76 27.74 97.7Q27.71 97.63 27.67 97.57Q27.65 97.51 27.64 97.5Q27.57 97.33 27.55 97.21Q27.54 97.09 27.5 96.89Q27.44 96.65 27.34 96.42Q27.23 96.19 27.16 95.95Q27.13 95.84 27.07 95.67L26.97 95.3Q26.92 95.11 26.87 94.97Q26.84 94.83 26.83 94.81Q26.83 94.79 26.81 94.7Q26.79 94.6 26.77 94.49Q26.75 94.38 26.73 94.28Q26.71 94.18 26.71 94.16Q26.71 94.15 26.69 94.09Q26.67 94.02 26.64 93.95Q26.63 93.87 26.6 93.79Q26.58 93.71 26.57 93.66Q26.55 93.61 26.51 93.47Q26.48 93.32 26.42 93.17Q26.38 93.01 26.31 92.88Q26.25 92.75 26.16 92.72Q26.14 92.72 26.13 92.72Q26.09 92.73 26.06 92.76Q26.02 92.79 25.98 92.85Q25.95 92.89 25.92 92.94Q25.9 92.99 25.89 93Q25.86 93.02 25.8 93.09Q25.75 93.15 25.68 93.22L25.49 93.41Q25.48 93.42 25.42 93.44L25.3 93.51Q25.23 93.54 25.16 93.57Q25.1 93.59 25.08 93.6Q25.04 93.63 24.97 93.73Q24.9 93.82 24.9 93.88Q24.9 93.89 24.92 93.98Q24.95 94.06 24.95 94.09L24.95 94.22Q24.95 94.31 24.9 94.4Q24.87 94.5 24.82 94.6Q24.76 94.7 24.7 94.79Q24.65 94.88 24.61 94.95Q24.55 95.12 24.48 95.25Q24.42 95.38 24.35 95.54Q24.33 95.56 24.28 95.67Q24.24 95.77 24.17 95.89Q24.12 96 24.07 96.1Q24.02 96.2 24.02 96.22Q24.02 96.24 23.98 96.33Q23.95 96.41 23.92 96.52L23.85 96.71Q23.81 96.8 23.8 96.82Q23.79 96.87 23.73 97Q23.69 97.13 23.66 97.15Q23.45 97.65 23.22 98.14Q22.98 98.62 22.74 99.1Q22.72 99.11 22.7 99.2Q22.68 99.29 22.68 99.31Q22.68 99.33 22.64 99.39Q22.63 99.41 22.62 99.43L22.53 99.52Q22.49 99.57 22.43 99.62L22.34 99.72Q22.29 99.75 22.28 99.76Q22.27 99.78 22.2 99.82Q22.13 99.84 22.04 99.88Q21.96 99.91 21.89 99.95Q21.82 99.97 21.8 99.97Q21.7 100.02 21.58 100.07Q21.55 100.08 21.53 100.1Q21.48 100.16 21.48 100.28L21.48 100.31Q21.48 100.33 21.48 100.39Q21.48 100.44 21.5 100.5Q21.51 100.52 21.52 100.54Q21.53 100.57 21.55 100.6Q21.58 100.62 21.6 100.64Q21.62 100.64 21.64 100.64L21.7 100.64Q21.71 100.64 21.78 100.63Q21.86 100.63 21.95 100.62Q22.04 100.6 22.11 100.59Q22.18 100.57 22.2 100.57ZM24.31 97.24Q24.29 97.19 24.29 97.14L24.29 97.03Q24.31 96.95 24.38 96.75Q24.45 96.55 24.52 96.33Q24.59 96.1 24.65 95.9Q24.72 95.69 24.75 95.61Q24.78 95.54 24.81 95.4Q24.83 95.26 24.87 95.13Q24.91 95 24.97 94.9Q25.01 94.85 25.07 94.83Q25.11 94.81 25.16 94.81Q25.17 94.81 25.19 94.81Q25.23 94.82 25.27 94.85Q25.33 94.89 25.37 94.96Q25.41 95.03 25.44 95.11Q25.47 95.18 25.49 95.24Q25.63 95.61 25.79 96.02Q25.95 96.41 26.03 96.82L26.03 96.97Q26.03 97.18 25.93 97.27Q25.9 97.29 25.86 97.31Q25.69 97.38 25.47 97.38Q25.37 97.38 25.27 97.37Q25.18 97.36 25.08 97.36L24.61 97.36Q24.52 97.36 24.4 97.31Q24.34 97.28 24.31 97.24Z" fill="#151618" fill-opacity="1.000000" fill-rule="evenodd"/>
</svg>
