<svg width="22.000000" height="22.000000" viewBox="0 0 22 22" fill="none" xmlns="http://www.w3.org/2000/svg" xmlns:xlink="http://www.w3.org/1999/xlink">
	<desc>
			Created with Pixso.
	</desc>
	<defs/>
	<rect width="22.000000" height="22.000000" transform="translate(0.000000 -0.500000)" fill="#FFFFFF" fill-opacity="0"/>
	<path d="M16.03 14.12C17.27 12.58 18 10.63 18 8.5C18 3.53 13.97 -0.5 9 -0.5C4.03 -0.5 0 3.53 0 8.5C0 13.47 4.03 17.5 9 17.5C11.13 17.5 13.08 16.77 14.62 15.53L20.29 21.2C20.68 21.59 21.31 21.59 21.7 21.2C22.09 20.81 22.09 20.18 21.7 19.79L16.03 14.12ZM9 15.51C5.13 15.51 1.99 12.37 1.99 8.5C1.99 4.63 5.13 1.49 9 1.49C12.87 1.49 16.01 4.63 16.01 8.5C16.01 12.37 12.87 15.51 9 15.51Z" fill="#151618" fill-opacity="1.000000" fill-rule="evenodd"/>
</svg>
