<svg width="18.000000" height="22.000000" viewBox="0 0 18 22" fill="none" xmlns="http://www.w3.org/2000/svg" xmlns:xlink="http://www.w3.org/1999/xlink">
	<desc>
			Created with Pixso.
	</desc>
	<defs/>
	<rect width="18.000000" height="22.000010" fill="#FFFFFF" fill-opacity="0"/>
	<path d="M14 5.5C14 8.53 11.76 11 9 11C6.23 11 4 8.53 4 5.5C4 2.46 6.23 0 9 0C11.76 0 14 2.46 14 5.5ZM6 5.5C6 7.32 7.34 8.8 9 8.8C10.65 8.8 12 7.32 12 5.5C12 3.67 10.65 2.19 9 2.19C7.34 2.19 6 3.67 6 5.5ZM12.91 12.69C13.95 12.08 15.26 12.26 16.1 13.1C16.48 13.49 16.93 13.99 17.29 14.53C17.64 15.05 18 15.75 18 16.5L18 19C18 20.65 16.65 22 15 22L3 22C1.34 22 0 20.65 0 19L0 16.5C0 15.76 0.34 15.07 0.68 14.56C1.04 14.02 1.48 13.52 1.86 13.14C2.73 12.26 4.07 12.11 5.12 12.75C5.22 12.81 5.32 12.87 5.41 12.93C5.89 13.23 6.26 13.46 6.72 13.64C7.24 13.84 7.92 14 9 14C10.08 14 10.75 13.84 11.26 13.62C11.67 13.45 11.99 13.26 12.4 13.01C12.55 12.91 12.72 12.81 12.91 12.69ZM14.68 14.52C14.47 14.31 14.17 14.27 13.93 14.41C13.81 14.49 13.68 14.56 13.55 14.65C13.1 14.92 12.6 15.24 12.02 15.47C11.23 15.8 10.3 16 9 16C7.72 16 6.79 15.81 5.99 15.5C5.34 15.25 4.8 14.91 4.32 14.61C4.24 14.56 4.15 14.5 4.07 14.45C3.81 14.29 3.49 14.33 3.28 14.54C2.95 14.88 2.61 15.27 2.35 15.66C2.08 16.07 2 16.35 2 16.5L2 19C2 19.55 2.44 20 3 20L15 20C15.55 20 16 19.55 16 19L16 16.5C16 16.35 15.91 16.06 15.63 15.64C15.37 15.25 15.02 14.85 14.68 14.52Z" fill="#151618" fill-opacity="1.000000" fill-rule="evenodd"/>
</svg>
